<svg width="146" height="224" viewBox="0 0 146 224" fill="none" xmlns="http://www.w3.org/2000/svg">
<g opacity="0.3">
<path d="M75.7646 155.888H132.543V198.192H75.7646V155.888ZM13.1078 8.44983H69.8874V50.1608H13.3962V55.6105H69.8874V100.3H13.3962V105.748H69.8874V150.439H13.3962V155.888H69.8874V198.192H13.1078V8.44983ZM75.7646 55.6105H132.543V100.3H75.7646V55.6105ZM75.7646 105.748H132.543V150.438H75.7646V105.748ZM132.543 50.1608H75.7646V8.44983H132.543V50.1608ZM8.41827 205.642H137.233V1H8.41827V205.642Z" stroke="black" stroke-width="0.853263" stroke-miterlimit="10" stroke-linecap="round" stroke-linejoin="round"/>
<path d="M61.7495 20.9218L33.1036 44.6289" stroke="black" stroke-width="0.853263" stroke-miterlimit="10" stroke-linecap="round" stroke-linejoin="round"/>
<path d="M118.549 67.3481L89.9028 91.0553" stroke="black" stroke-width="0.853263" stroke-miterlimit="10" stroke-linecap="round" stroke-linejoin="round"/>
<path d="M53.8466 167.611L25.2008 191.318" stroke="black" stroke-width="0.853263" stroke-miterlimit="10" stroke-linecap="round" stroke-linejoin="round"/>
<path d="M46.7269 27.8363L33.5966 38.702" stroke="black" stroke-width="0.853263" stroke-miterlimit="10" stroke-linecap="round" stroke-linejoin="round"/>
<path d="M116.366 61.9161L103.237 72.7817" stroke="black" stroke-width="0.853263" stroke-miterlimit="10" stroke-linecap="round" stroke-linejoin="round"/>
<path d="M52.1593 175.02L39.0301 185.885" stroke="black" stroke-width="0.853263" stroke-miterlimit="10" stroke-linecap="round" stroke-linejoin="round"/>
<path d="M48.2076 122.666L35.0787 133.532" stroke="black" stroke-width="0.853263" stroke-miterlimit="10" stroke-linecap="round" stroke-linejoin="round"/>
<path d="M115.38 168.598L102.249 179.464" stroke="black" stroke-width="0.853263" stroke-miterlimit="10" stroke-linecap="round" stroke-linejoin="round"/>
<path d="M1.00003 205.506H145.219V223.422H1.00003V205.506Z" stroke="black" stroke-width="0.853263" stroke-miterlimit="10" stroke-linecap="round" stroke-linejoin="round"/>
</g>
</svg>
